<?xml version="1.0" encoding="utf-8"?>
<!-- Generator: Adobe Illustrator 23.0.1, SVG Export Plug-In . SVG Version: 6.00 Build 0)  -->
<svg version="1.1" id="Capa_1" xmlns="http://www.w3.org/2000/svg" xmlns:xlink="http://www.w3.org/1999/xlink" x="0px" y="0px"
	 viewBox="0 0 595.3 841.9" style="enable-background:new 0 0 595.3 841.9;" xml:space="preserve">
<style type="text/css">
	.st0{fill:url(#SVGID_1_);}
	.st1{clip-path:url(#SVGID_3_);fill:#F4F0D7;}
	.st2{fill:url(#SVGID_4_);}
	.st3{fill:url(#SVGID_5_);}
	.st4{fill:url(#SVGID_6_);}
	.st5{clip-path:url(#SVGID_8_);fill:#F4F0D7;}
	.st6{fill:url(#SVGID_9_);}
	.st7{fill:#553C33;}
	.st8{fill:#3B1C0F;}
	.st9{fill:#E0D8ED;}
	.st10{fill:url(#SVGID_10_);}
	.st11{fill:url(#SVGID_11_);}
	.st12{fill:#27130A;}
	.st13{fill:#D8D2E8;}
	.st14{fill:none;stroke:#000000;stroke-miterlimit:10;}
	.st15{fill:#88624E;}
	.st16{fill:#FFFFFF;}
	.st17{fill:none;stroke:#000000;stroke-width:0.5;stroke-linecap:round;stroke-miterlimit:10;}
	.st18{fill:none;stroke:#000000;stroke-width:0.5;stroke-linecap:round;stroke-miterlimit:10;stroke-dasharray:1.9692,1.9692;}
	.st19{fill:none;stroke:#000000;stroke-width:0.5;stroke-linecap:round;stroke-miterlimit:10;stroke-dasharray:2.0156,2.0156;}
	.st20{fill:#FFFFFF;stroke:#000000;stroke-width:0.5;stroke-linecap:round;stroke-miterlimit:10;stroke-dasharray:2;}
	.st21{fill:#F4F0D7;}
	.st22{fill:url(#SVGID_12_);}
	.st23{fill:url(#SVGID_13_);}
	.st24{fill:#AF733E;}
</style>
<linearGradient id="SVGID_1_" gradientUnits="userSpaceOnUse" x1="569.8228" y1="128.7155" x2="669.6327" y2="128.7155" gradientTransform="matrix(-1.0129 0 0 1 1112.9291 0)">
	<stop  offset="0" style="stop-color:#F8B684"/>
	<stop  offset="1" style="stop-color:#945815"/>
</linearGradient>
<path class="st0" d="M434.7,142.4c19.2-39.2,42.1-62.1,66.6-77.3c28.1-10,36.1-6.4,34.3,0c-6.6,57.5-28.5,95.5-50.4,133.5
	L434.7,142.4z"/>
<g>
	<defs>
		<path id="SVGID_2_" d="M434.7,142.4c19.2-39.2,42.1-62.1,66.6-77.3c28.1-10,36.1-6.4,34.3,0c-6.6,57.5-28.5,95.5-50.4,133.5
			L434.7,142.4z"/>
	</defs>
	<clipPath id="SVGID_3_">
		<use xlink:href="#SVGID_2_"  style="overflow:visible;"/>
	</clipPath>
	<ellipse class="st1" cx="574" cy="179" rx="88.8" ry="125.9"/>
</g>
<radialGradient id="SVGID_4_" cx="20.1706" cy="386.3722" r="105.7782" gradientTransform="matrix(-1.036 -4.769105e-03 -4.603200e-03 1 491.5409 -16.0057)" gradientUnits="userSpaceOnUse">
	<stop  offset="0" style="stop-color:#F8B684"/>
	<stop  offset="1" style="stop-color:#945815"/>
</radialGradient>
<polygon class="st2" points="513.8,284.1 544.4,268.5 569.8,276.5 582.4,312.5 554.4,312.4 570.6,393.8 537.5,382.5 561.3,472.8 
	428.6,457.3 355.6,369.7 "/>
<radialGradient id="SVGID_5_" cx="122.2077" cy="369.7595" r="105.7782" gradientUnits="userSpaceOnUse">
	<stop  offset="0" style="stop-color:#F8B684"/>
	<stop  offset="1" style="stop-color:#945815"/>
</radialGradient>
<polygon class="st3" points="79.3,283.4 49.8,267.7 25.2,275.5 12.9,311.5 39.9,311.5 23.9,392.8 55.9,381.7 32.5,471.9 160.7,457 
	231.5,369.8 "/>
<linearGradient id="SVGID_6_" gradientUnits="userSpaceOnUse" x1="51" y1="128.5464" x2="150.8099" y2="128.5464">
	<stop  offset="0" style="stop-color:#E8A77C"/>
	<stop  offset="0.9889" style="stop-color:#945815"/>
</linearGradient>
<path class="st4" d="M150.8,142.2c-19-39.2-41.5-62.1-65.7-77.3c-27.7-10-35.7-6.4-33.8,0c6.5,57.5,28.2,95.5,49.8,133.5
	L150.8,142.2z"/>
<g>
	<defs>
		<path id="SVGID_7_" d="M150.8,142.2c-19-39.2-41.5-62.1-65.7-77.3c-27.7-10-35.7-6.4-33.8,0c6.5,57.5,28.2,95.5,49.8,133.5
			L150.8,142.2z"/>
	</defs>
	<clipPath id="SVGID_8_">
		<use xlink:href="#SVGID_7_"  style="overflow:visible;"/>
	</clipPath>
	<ellipse class="st5" cx="13.2" cy="178.8" rx="87.7" ry="125.9"/>
</g>
<radialGradient id="SVGID_9_" cx="299.8798" cy="637.8273" r="96.8703" gradientUnits="userSpaceOnUse">
	<stop  offset="0" style="stop-color:#F8B684"/>
	<stop  offset="1" style="stop-color:#945815"/>
</radialGradient>
<path class="st6" d="M307.2,732.9c-45.3,0-83.4,0.1-98.3-24.6c-12.2-20.1-7.6-54.4-0.8-74.7c0.3-0.8,0.7-1.9,1.2-3.4
	c9.1-25.6,46.7-90.1,96.7-87.4c51.7,2.8,77.3,75.1,81.5,86.9c6.2,17.6,21.2,59.7,0,85.2C372.6,732.9,347.8,732.9,307.2,732.9z"/>
<path class="st7" d="M173.9,541.1l8.5,37.7l30.7,51.6c65.7,10.9,119.7,8.8,167.7,0l30.7-54.9l6.6-34.4H173.9z"/>
<path class="st8" d="M369,623.9H228.8c-15.3-22.9-15.3-45.9,0-68.8H369C379.2,578,379.2,600.9,369,623.9z"/>
<path class="st9" d="M182.5,529.6h41c-12.8,57.7-17.3,145.9-20.5,239.3L182.5,529.6z"/>
<linearGradient id="SVGID_10_" gradientUnits="userSpaceOnUse" x1="297.0437" y1="328.8502" x2="297.0437" y2="134.6261">
	<stop  offset="0" style="stop-color:#F8B684"/>
	<stop  offset="1" style="stop-color:#945815"/>
</linearGradient>
<ellipse class="st10" cx="297" cy="266.2" rx="235.8" ry="161.1"/>
<path class="st9" d="M370.6,529.6h41l-20.5,239.3C390.1,679.9,383.7,599.4,370.6,529.6z"/>
<linearGradient id="SVGID_11_" gradientUnits="userSpaceOnUse" x1="294.7489" y1="392.787" x2="294.7489" y2="550.9391">
	<stop  offset="0" style="stop-color:#F8B684"/>
	<stop  offset="1" style="stop-color:#945815"/>
</linearGradient>
<path class="st11" d="M176.1,392.8c-14.1,48.2-18.2,97.7-13.6,148.3c90.5,12.8,179.1,13.4,265.5,0c2.7-47.3-1-94.6-8.2-142
	L176.1,392.8z"/>
<polygon class="st12" points="205.2,399.1 205.2,427.3 290.9,514.9 301.5,514.9 399.1,427.3 393.9,404.9 "/>
<path class="st13" d="M364,619.8H234.6c5.2-13.5,10.4-26.9,15.6-40.4c32.6,0.9,65.2,1.8,97.8,2.7C353.3,594.7,358.7,607.2,364,619.8
	z"/>
<path class="st13" d="M234.6,560.3l129.5-1.2c-5.1,13.5-10.1,27-15.2,40.5c-32.6-0.6-65.2-1.2-97.8-1.8
	C245.5,585.4,240,572.9,234.6,560.3z"/>
<line class="st14" x1="262.7" y1="560.1" x2="257.2" y2="598"/>
<line class="st14" x1="335.3" y1="559.4" x2="344.9" y2="599.6"/>
<line class="st14" x1="324.2" y1="559.5" x2="326" y2="599.6"/>
<line class="st14" x1="305.8" y1="559.7" x2="306.3" y2="598.9"/>
<line class="st14" x1="286.7" y1="559.9" x2="286.7" y2="595.2"/>
<line class="st14" x1="272.5" y1="560" x2="273.8" y2="595.2"/>
<line class="st14" x1="345.1" y1="619.8" x2="340.1" y2="599.5"/>
<line class="st14" x1="322.3" y1="619.8" x2="320.5" y2="595.2"/>
<line class="st14" x1="306" y1="619.8" x2="303.3" y2="598.8"/>
<line class="st14" x1="291" y1="619.8" x2="292.8" y2="594.6"/>
<line class="st14" x1="278.7" y1="619.8" x2="277.5" y2="594.6"/>
<line class="st14" x1="264.6" y1="619.8" x2="266.4" y2="598.2"/>
<line class="st14" x1="254.1" y1="619.8" x2="249.8" y2="595.2"/>
<path class="st15" d="M361.2,308.2c3.1-20,17.1-34.7,53.8-38.7c37.3-4.7,54.9,4.1,61.9,23.7C440.3,314.1,402,320.7,361.2,308.2z"/>
<path class="st15" d="M116.3,291.8c8.5-18.3,26-28.6,62.4-22.3c37.2,5.8,51.6,19.1,52.9,40C190.7,319.4,152,315.2,116.3,291.8z"/>
<g>
	<path class="st16" d="M123.6,291.7c7.4-16,22.7-25,54.4-19.5c32.4,5,45,16.7,46.1,34.8C188.6,315.8,154.8,312.1,123.6,291.7z"/>
	<g>
		<path class="st17" d="M124.5,292.3c-0.3-0.2-0.6-0.4-0.8-0.5c0.1-0.3,0.3-0.6,0.4-0.9"/>
		<path class="st18" d="M125,289.1c7.8-14.3,23.2-22,53.1-16.8c31.2,4.9,44.1,15.8,45.9,32.9"/>
		<path class="st17" d="M224.1,306.1c0,0.3,0.1,0.7,0.1,1c-0.3,0.1-0.6,0.2-1,0.2"/>
		<path class="st19" d="M221.2,307.8c-33.9,7.6-66.1,3.9-95.9-15"/>
	</g>
</g>
<path class="st20" d="M368.7,307.5c2-17.5,13.7-30.8,45.6-35.6c32.4-5.4,48,1.7,54.7,18.6C437.9,310,404.7,317.1,368.7,307.5z"/>
<path class="st21" d="M357.3,285.4c2.7-5.9,5.9-19.9,15.8-60.3c6.9-27.9,48.2-18,76.8-7.3c33.5,22.4,59.2,94.3,44.6,72.9
	C470.4,255.3,379,251.8,357.3,285.4z"/>
<radialGradient id="SVGID_12_" cx="182.4526" cy="330.0796" r="55.1981" gradientUnits="userSpaceOnUse">
	<stop  offset="0" style="stop-color:#FFFFE3"/>
	<stop  offset="1" style="stop-color:#F2FFFF"/>
</radialGradient>
<path class="st22" d="M256.9,337.1c-50.9-4.8-91.9-12.9-116.4-26.6c-25.4-8.6-39.1-4.2-29.5,26.6
	C159.7,358.9,208.3,358.9,256.9,337.1z"/>
<radialGradient id="SVGID_13_" cx="410.7509" cy="330.0772" r="55.1986" gradientUnits="userSpaceOnUse">
	<stop  offset="0" style="stop-color:#FAEADC"/>
	<stop  offset="1" style="stop-color:#FEFFE4"/>
	<stop  offset="1" style="stop-color:#F2FFFF"/>
</radialGradient>
<path class="st23" d="M336.3,337.1c50.9-4.8,91.9-12.9,116.4-26.6c25.4-8.6,39.1-4.2,29.5,26.6C433.5,358.9,384.9,358.9,336.3,337.1
	z"/>
<path class="st24" d="M241.3,303.1h108.2c20.2,28.2,40.4,56.3,60.6,84.5c-38.2,35.9-76.5,71.8-114.7,107.7
	c-35.6-37-71.3-74.1-106.9-111.1C206.1,357.1,223.7,330.1,241.3,303.1z"/>
<path class="st21" d="M236.9,285.6c-2.9-6-6.3-20.1-16.8-60.7c-7.3-28.1-51.2-19-81.5-8.9c-35.5,21.7-62.6,93.3-47.2,72.2
	C116.9,253.2,213.9,251.5,236.9,285.6z"/>
</svg>
